<svg width="40" height="40" viewBox="0 0 40 40" fill="none" xmlns="http://www.w3.org/2000/svg">
<path d="M31.6111 0L0 40H7.88889L39.5 0H31.6111Z" fill="url(#paint0_linear_49_13623)"/>
<path d="M27.6665 40H39.4998L32.8887 33.375L27.6665 40Z" fill="url(#paint1_linear_49_13623)"/>
<path d="M25.2224 25.5625L13.8335 40H21.7224L29.6113 30L25.2224 25.5625Z" fill="url(#paint2_linear_49_13623)"/>
<path d="M11.8333 0H0L6.61111 6.625L11.8333 0Z" fill="url(#paint3_linear_49_13623)"/>
<path d="M14.2776 14.4375L25.6664 0H17.7776L9.88867 10L14.2776 14.4375Z" fill="url(#paint4_linear_49_13623)"/>
<defs>
<linearGradient id="paint0_linear_49_13623" x1="8.07461" y1="-17.4185" x2="-17.7022" y2="31.5611" gradientUnits="userSpaceOnUse">
<stop offset="0.3" stop-color="#00BDB8"/>
<stop offset="0.95" stop-color="#3459A7"/>
</linearGradient>
<linearGradient id="paint1_linear_49_13623" x1="29.2411" y1="34.2843" x2="27.9643" y2="42.2219" gradientUnits="userSpaceOnUse">
<stop offset="0.3" stop-color="#00BDB8"/>
<stop offset="0.95" stop-color="#3459A7"/>
</linearGradient>
<linearGradient id="paint2_linear_49_13623" x1="17.2834" y1="22.379" x2="10.0339" y2="39.2493" gradientUnits="userSpaceOnUse">
<stop offset="0.3" stop-color="#00BDB8"/>
<stop offset="0.95" stop-color="#3459A7"/>
</linearGradient>
<linearGradient id="paint3_linear_49_13623" x1="0.689628" y1="-3.96717" x2="-0.587194" y2="3.9704" gradientUnits="userSpaceOnUse">
<stop offset="0.3" stop-color="#00BDB8"/>
<stop offset="0.95" stop-color="#3459A7"/>
</linearGradient>
<linearGradient id="paint4_linear_49_13623" x1="12.7314" y1="-6.44265" x2="5.482" y2="10.4277" gradientUnits="userSpaceOnUse">
<stop offset="0.3" stop-color="#00BDB8"/>
<stop offset="0.95" stop-color="#3459A7"/>
</linearGradient>
</defs>
</svg>
